<svg width="452" height="175" viewBox="0 0 472 195" fill="none" xmlns="http://www.w3.org/2000/svg">
<line x1="2.53703" y1="63.4624" x2="4.46241" y2="192.463" stroke="#F12568" stroke-width="5" stroke-linecap="round"/>
<line x1="246.501" y1="61.2011" x2="201.201" y2="186.499" stroke="#F12568" stroke-width="5" stroke-linecap="round"/>
<path d="M249.358 62.1699L248.528 59.8118L243.812 61.4719L244.642 63.8301L249.358 62.1699ZM288.642 188.83C289.1 190.132 290.528 190.817 291.83 190.358C293.132 189.9 293.817 188.472 293.358 187.17L288.642 188.83ZM244.642 63.8301L288.642 188.83L293.358 187.17L249.358 62.1699L244.642 63.8301Z" fill="#F12568"/>
<line x1="137.537" y1="63.4624" x2="139.462" y2="192.463" stroke="#F12568" stroke-width="5" stroke-linecap="round"/>
<line x1="2.5" y1="62.5" x2="85.5" y2="62.5" stroke="#F12568" stroke-width="5" stroke-linecap="round"/>
<line x1="21.5" y1="115.5" x2="71.5" y2="115.5" stroke="#F12568" stroke-width="5" stroke-linecap="round"/>
<line x1="265.291" y1="115.81" x2="282.291" y2="162.81" stroke="black" stroke-width="7"/>
<path d="M336 62H390.9C400.5 62 408.24 65.18 414.12 71.54C420 77.9 422.94 86.24 422.94 96.56C422.94 106.88 420 115.22 414.12 121.58C408.24 127.94 400.5 131.12 390.9 131.12H341.76V188H336V62ZM388.74 126.08C397.62 126.08 404.58 123.44 409.62 118.16C414.66 112.88 417.18 105.68 417.18 96.56C417.18 87.44 414.66 80.24 409.62 74.96C404.58 69.68 397.62 67.04 388.74 67.04H341.76V126.08H388.74Z" fill="#F12568"/>
<rect x="342" y="115" width="31" height="65" fill="black"/>
</svg>
